<svg width="48" height="48" viewBox="0 0 48 48" fill="none" xmlns="http://www.w3.org/2000/svg">
<g clip-path="url(#clip0_508_5711)">
<g clip-path="url(#clip1_508_5711)">
<path d="M37.125 28.75L32.25 23.875H20.875C20.444 23.875 20.0307 23.7038 19.726 23.399C19.4212 23.0943 19.25 22.681 19.25 22.25V12.5C19.25 12.069 19.4212 11.6557 19.726 11.351C20.0307 11.0462 20.444 10.875 20.875 10.875H35.5C35.931 10.875 36.3443 11.0462 36.6491 11.351C36.9538 11.6557 37.125 12.069 37.125 12.5V28.75Z" stroke="#3F3A64" stroke-width="2.75" stroke-linecap="round" stroke-linejoin="round"/>
<path d="M25.75 30.375V33.625C25.75 34.056 25.5788 34.4693 25.274 34.7741C24.9693 35.0788 24.556 35.25 24.125 35.25H12.75L7.875 40.125V23.875C7.875 23.444 8.0462 23.0307 8.35095 22.726C8.6557 22.4212 9.06902 22.25 9.5 22.25H12.75" stroke="#20AD96" stroke-width="2.75" stroke-linecap="round" stroke-linejoin="round"/>
</g>
</g>
<defs>
<clipPath id="clip0_508_5711">
<rect width="36" height="36" fill="white" transform="translate(6 6)"/>
</clipPath>
<clipPath id="clip1_508_5711">
<rect width="39" height="39" fill="white" transform="translate(3 6)"/>
</clipPath>
</defs>
</svg>
