<svg width="25" height="23" viewBox="0 0 25 23" fill="none" xmlns="http://www.w3.org/2000/svg">
<path d="M16.4442 0C18.0971 0 19.6252 0.888971 20.4564 2.33393L24.3706 9.14004C25.2098 10.5989 25.2098 12.4011 24.3706 13.86L20.4564 20.6661C19.6252 22.111 18.0971 23 16.4442 23H8.55579C6.90289 23 5.37472 22.111 4.54369 20.6661L0.629288 13.86C-0.209764 12.4011 -0.209762 10.5989 0.62929 9.14004L4.54369 2.33393C5.37472 0.888971 6.90289 0 8.55579 0H16.4442Z" fill="#20AD96"/>
<path d="M7.91943 17.6596L10.4669 14.9713H16.4111C16.6363 14.9713 16.8523 14.8769 17.0115 14.7089C17.1708 14.5408 17.2602 14.3129 17.2602 14.0752V8.69859C17.2602 8.46093 17.1708 8.23301 17.0115 8.06495C16.8523 7.8969 16.6363 7.80249 16.4111 7.80249H8.76859C8.54338 7.80249 8.3274 7.8969 8.16814 8.06495C8.0089 8.23301 7.91943 8.46093 7.91943 8.69859V17.6596Z" stroke="white" stroke-width="1.60647" stroke-linecap="round" stroke-linejoin="round"/>
</svg>
