<svg width="182" height="13" viewBox="0 0 182 13" fill="none" xmlns="http://www.w3.org/2000/svg">
<path d="M0.0568182 1.27273H1.31818L4.28409 8.51705H4.38636L7.35227 1.27273H8.61364V10H7.625V3.36932H7.53977L4.8125 10H3.85795L1.13068 3.36932H1.04545V10H0.0568182V1.27273ZM12.5224 10.1534C12.1076 10.1534 11.7312 10.0753 11.3931 9.91903C11.055 9.75994 10.7866 9.53125 10.5877 9.23295C10.3888 8.93182 10.2894 8.56818 10.2894 8.14205C10.2894 7.76705 10.3633 7.46307 10.511 7.23011C10.6587 6.99432 10.8562 6.80966 11.1033 6.67614C11.3505 6.54261 11.6232 6.44318 11.9215 6.37784C12.2227 6.30966 12.5252 6.25568 12.8292 6.21591C13.2269 6.16477 13.5494 6.12642 13.7965 6.10085C14.0465 6.07244 14.2283 6.02557 14.342 5.96023C14.4585 5.89489 14.5167 5.78125 14.5167 5.61932V5.58523C14.5167 5.16477 14.4016 4.83807 14.1715 4.60511C13.9442 4.37216 13.5991 4.25568 13.136 4.25568C12.6559 4.25568 12.2795 4.3608 12.0067 4.57102C11.734 4.78125 11.5423 5.00568 11.4315 5.24432L10.4769 4.90341C10.6474 4.50568 10.8746 4.19602 11.1587 3.97443C11.4457 3.75 11.7582 3.59375 12.0962 3.50568C12.4371 3.41477 12.7724 3.36932 13.1019 3.36932C13.3121 3.36932 13.5536 3.39489 13.8263 3.44602C14.1019 3.49432 14.3675 3.59517 14.6232 3.74858C14.8817 3.90199 15.0962 4.13352 15.2667 4.44318C15.4371 4.75284 15.5224 5.16761 15.5224 5.6875V10H14.5167V9.11364H14.4656C14.3974 9.25568 14.2837 9.40767 14.1246 9.5696C13.9656 9.73153 13.7539 9.86932 13.4897 9.98295C13.2255 10.0966 12.9031 10.1534 12.5224 10.1534ZM12.6758 9.25C13.0735 9.25 13.4087 9.17188 13.6815 9.01562C13.957 8.85938 14.1644 8.65767 14.3036 8.41051C14.4457 8.16335 14.5167 7.90341 14.5167 7.63068V6.71023C14.4741 6.76136 14.3803 6.80824 14.2354 6.85085C14.0934 6.89062 13.9286 6.92614 13.7411 6.95739C13.5565 6.9858 13.3761 7.01136 13.1999 7.03409C13.0266 7.05398 12.886 7.07102 12.7781 7.08523C12.5167 7.11932 12.2724 7.17472 12.0451 7.25142C11.8207 7.32528 11.6388 7.4375 11.4996 7.58807C11.3633 7.7358 11.2951 7.9375 11.2951 8.19318C11.2951 8.54261 11.4244 8.80682 11.6829 8.9858C11.9442 9.16193 12.2752 9.25 12.6758 9.25ZM19.8295 10.1364C19.2841 10.1364 18.8026 9.99858 18.3849 9.72301C17.9673 9.4446 17.6406 9.05256 17.4048 8.54688C17.169 8.03835 17.0511 7.4375 17.0511 6.74432C17.0511 6.05682 17.169 5.46023 17.4048 4.95455C17.6406 4.44886 17.9688 4.05824 18.3892 3.78267C18.8097 3.5071 19.2955 3.36932 19.8466 3.36932C20.2727 3.36932 20.6094 3.44034 20.8565 3.58239C21.1065 3.72159 21.2969 3.88068 21.4276 4.05966C21.5611 4.2358 21.6648 4.38068 21.7386 4.49432H21.8239V1.27273H22.8295V10H21.858V8.99432H21.7386C21.6648 9.11364 21.5597 9.2642 21.4233 9.44602C21.2869 9.625 21.0923 9.78551 20.8395 9.92756C20.5866 10.0668 20.25 10.1364 19.8295 10.1364ZM19.9659 9.23295C20.3693 9.23295 20.7102 9.12784 20.9886 8.91761C21.267 8.70455 21.4787 8.41051 21.6236 8.03551C21.7685 7.65767 21.8409 7.22159 21.8409 6.72727C21.8409 6.23864 21.7699 5.81108 21.6278 5.4446C21.4858 5.07528 21.2756 4.78835 20.9972 4.58381C20.7188 4.37642 20.375 4.27273 19.9659 4.27273C19.5398 4.27273 19.1847 4.3821 18.9006 4.60085C18.6193 4.81676 18.4077 5.1108 18.2656 5.48295C18.1264 5.85227 18.0568 6.26705 18.0568 6.72727C18.0568 7.19318 18.1278 7.61648 18.2699 7.99716C18.4148 8.375 18.6278 8.67614 18.9091 8.90057C19.1932 9.12216 19.5455 9.23295 19.9659 9.23295ZM27.5554 10.1364C26.9247 10.1364 26.3807 9.99716 25.9233 9.71875C25.4688 9.4375 25.1179 9.04545 24.8707 8.54261C24.6264 8.03693 24.5043 7.44886 24.5043 6.77841C24.5043 6.10795 24.6264 5.51705 24.8707 5.00568C25.1179 4.49148 25.4616 4.09091 25.902 3.80398C26.3452 3.5142 26.8622 3.36932 27.4531 3.36932C27.794 3.36932 28.1307 3.42614 28.4631 3.53977C28.7955 3.65341 29.098 3.83807 29.3707 4.09375C29.6435 4.34659 29.8608 4.68182 30.0227 5.09943C30.1847 5.51705 30.2656 6.03125 30.2656 6.64205V7.06818H25.2202V6.19886H29.2429C29.2429 5.82955 29.169 5.5 29.0213 5.21023C28.8764 4.92045 28.669 4.69176 28.3991 4.52415C28.1321 4.35653 27.8168 4.27273 27.4531 4.27273C27.0526 4.27273 26.706 4.37216 26.4134 4.57102C26.1236 4.76705 25.9006 5.02273 25.7443 5.33807C25.5881 5.65341 25.5099 5.99148 25.5099 6.35227V6.93182C25.5099 7.42614 25.5952 7.84517 25.7656 8.18892C25.9389 8.52983 26.179 8.78977 26.4858 8.96875C26.7926 9.14489 27.1491 9.23295 27.5554 9.23295C27.8196 9.23295 28.0582 9.19602 28.2713 9.12216C28.4872 9.04545 28.6733 8.93182 28.8295 8.78125C28.9858 8.62784 29.1065 8.4375 29.1918 8.21023L30.1634 8.48295C30.0611 8.8125 29.8892 9.10227 29.6477 9.35227C29.4063 9.59943 29.108 9.79261 28.7528 9.93182C28.3977 10.0682 27.9986 10.1364 27.5554 10.1364ZM36.6534 10L34.6591 3.45455H35.7159L37.1307 8.46591H37.1989L38.5966 3.45455H39.6705L41.0511 8.44886H41.1193L42.5341 3.45455H43.5909L41.5966 10H40.608L39.1761 4.97159H39.0739L37.642 10H36.6534ZM44.9205 10V3.45455H45.9261V10H44.9205ZM45.4318 2.36364C45.2358 2.36364 45.0668 2.29688 44.9247 2.16335C44.7855 2.02983 44.7159 1.86932 44.7159 1.68182C44.7159 1.49432 44.7855 1.33381 44.9247 1.20028C45.0668 1.06676 45.2358 1 45.4318 1C45.6278 1 45.7955 1.06676 45.9347 1.20028C46.0767 1.33381 46.1477 1.49432 46.1477 1.68182C46.1477 1.86932 46.0767 2.02983 45.9347 2.16335C45.7955 2.29688 45.6278 2.36364 45.4318 2.36364ZM50.6147 3.45455V4.30682H47.2227V3.45455H50.6147ZM48.2113 1.88636H49.217V8.125C49.217 8.40909 49.2582 8.62216 49.3406 8.7642C49.4258 8.90341 49.5337 8.99716 49.6644 9.04545C49.7979 9.09091 49.9386 9.11364 50.0863 9.11364C50.1971 9.11364 50.288 9.10795 50.359 9.09659C50.43 9.08239 50.4869 9.07102 50.5295 9.0625L50.734 9.96591C50.6658 9.99148 50.5707 10.017 50.4485 10.0426C50.3263 10.071 50.1715 10.0852 49.984 10.0852C49.6999 10.0852 49.4215 10.0241 49.1488 9.90199C48.8789 9.77983 48.6545 9.59375 48.4755 9.34375C48.2994 9.09375 48.2113 8.77841 48.2113 8.39773V1.88636ZM53.2738 6.0625V10H52.2681V1.27273H53.2738V4.47727H53.359C53.5124 4.1392 53.7425 3.87074 54.0494 3.67188C54.359 3.47017 54.771 3.36932 55.2852 3.36932C55.7312 3.36932 56.1218 3.45881 56.457 3.63778C56.7923 3.81392 57.0522 4.08523 57.2369 4.4517C57.4244 4.81534 57.5181 5.27841 57.5181 5.84091V10H56.5124V5.90909C56.5124 5.3892 56.3775 4.98722 56.1076 4.70312C55.8406 4.41619 55.4698 4.27273 54.9954 4.27273C54.6658 4.27273 54.3704 4.34233 54.109 4.48153C53.8505 4.62074 53.646 4.82386 53.4954 5.09091C53.3477 5.35795 53.2738 5.68182 53.2738 6.0625ZM64.6591 10.1534C64.2443 10.1534 63.8679 10.0753 63.5298 9.91903C63.1918 9.75994 62.9233 9.53125 62.7244 9.23295C62.5256 8.93182 62.4261 8.56818 62.4261 8.14205C62.4261 7.76705 62.5 7.46307 62.6477 7.23011C62.7955 6.99432 62.9929 6.80966 63.2401 6.67614C63.4872 6.54261 63.7599 6.44318 64.0582 6.37784C64.3594 6.30966 64.6619 6.25568 64.9659 6.21591C65.3636 6.16477 65.6861 6.12642 65.9332 6.10085C66.1832 6.07244 66.3651 6.02557 66.4787 5.96023C66.5952 5.89489 66.6534 5.78125 66.6534 5.61932V5.58523C66.6534 5.16477 66.5384 4.83807 66.3082 4.60511C66.081 4.37216 65.7358 4.25568 65.2727 4.25568C64.7926 4.25568 64.4162 4.3608 64.1435 4.57102C63.8707 4.78125 63.679 5.00568 63.5682 5.24432L62.6136 4.90341C62.7841 4.50568 63.0114 4.19602 63.2955 3.97443C63.5824 3.75 63.8949 3.59375 64.233 3.50568C64.5739 3.41477 64.9091 3.36932 65.2386 3.36932C65.4489 3.36932 65.6903 3.39489 65.9631 3.44602C66.2386 3.49432 66.5043 3.59517 66.7599 3.74858C67.0185 3.90199 67.233 4.13352 67.4034 4.44318C67.5739 4.75284 67.6591 5.16761 67.6591 5.6875V10H66.6534V9.11364H66.6023C66.5341 9.25568 66.4205 9.40767 66.2614 9.5696C66.1023 9.73153 65.8906 9.86932 65.6264 9.98295C65.3622 10.0966 65.0398 10.1534 64.6591 10.1534ZM64.8125 9.25C65.2102 9.25 65.5455 9.17188 65.8182 9.01562C66.0938 8.85938 66.3011 8.65767 66.4403 8.41051C66.5824 8.16335 66.6534 7.90341 66.6534 7.63068V6.71023C66.6108 6.76136 66.517 6.80824 66.3722 6.85085C66.2301 6.89062 66.0653 6.92614 65.8778 6.95739C65.6932 6.9858 65.5128 7.01136 65.3366 7.03409C65.1634 7.05398 65.0227 7.07102 64.9148 7.08523C64.6534 7.11932 64.4091 7.17472 64.1818 7.25142C63.9574 7.32528 63.7756 7.4375 63.6364 7.58807C63.5 7.7358 63.4318 7.9375 63.4318 8.19318C63.4318 8.54261 63.5611 8.80682 63.8196 8.9858C64.081 9.16193 64.4119 9.25 64.8125 9.25ZM89.881 10V1.27273H90.8867V4.49432H90.9719C91.0458 4.38068 91.1481 4.2358 91.2788 4.05966C91.4123 3.88068 91.6026 3.72159 91.8498 3.58239C92.0998 3.44034 92.4379 3.36932 92.864 3.36932C93.4151 3.36932 93.9009 3.5071 94.3214 3.78267C94.7418 4.05824 95.07 4.44886 95.3058 4.95455C95.5415 5.46023 95.6594 6.05682 95.6594 6.74432C95.6594 7.4375 95.5415 8.03835 95.3058 8.54688C95.07 9.05256 94.7433 9.4446 94.3256 9.72301C93.908 9.99858 93.4265 10.1364 92.881 10.1364C92.4606 10.1364 92.1239 10.0668 91.8711 9.92756C91.6183 9.78551 91.4237 9.625 91.2873 9.44602C91.1509 9.2642 91.0458 9.11364 90.9719 8.99432H90.8526V10H89.881ZM90.8697 6.72727C90.8697 7.22159 90.9421 7.65767 91.087 8.03551C91.2319 8.41051 91.4435 8.70455 91.7219 8.91761C92.0004 9.12784 92.3413 9.23295 92.7447 9.23295C93.1651 9.23295 93.516 9.12216 93.7972 8.90057C94.0813 8.67614 94.2944 8.375 94.4364 7.99716C94.5813 7.61648 94.6538 7.19318 94.6538 6.72727C94.6538 6.26705 94.5827 5.85227 94.4407 5.48295C94.3015 5.1108 94.0898 4.81676 93.8058 4.60085C93.5245 4.3821 93.1708 4.27273 92.7447 4.27273C92.3356 4.27273 91.9918 4.37642 91.7134 4.58381C91.435 4.78835 91.2248 5.07528 91.0827 5.4446C90.9407 5.81108 90.8697 6.23864 90.8697 6.72727ZM97.6112 12.4545C97.4407 12.4545 97.2887 12.4403 97.1552 12.4119C97.0217 12.3864 96.9293 12.3608 96.8782 12.3352L97.1339 11.4489C97.3782 11.5114 97.5941 11.5341 97.7816 11.517C97.9691 11.5 98.1353 11.4162 98.2802 11.2656C98.4279 11.1179 98.5629 10.8778 98.685 10.5455L98.8725 10.0341L96.4521 3.45455H97.543L99.3498 8.67045H99.418L101.225 3.45455H102.316L99.5373 10.9545C99.4123 11.2926 99.2575 11.5724 99.0728 11.794C98.8881 12.0185 98.6737 12.1847 98.4293 12.2926C98.1879 12.4006 97.9151 12.4545 97.6112 12.4545ZM106.962 1.06H108.594V4.96H112.398V1.06H114.042V10H112.398V6.4H108.594V10H106.962V1.06ZM117.61 10.144C116.922 10.144 116.374 9.976 115.966 9.64C115.566 9.304 115.366 8.848 115.366 8.272C115.366 7.72 115.554 7.264 115.93 6.904C116.306 6.544 116.87 6.304 117.622 6.184L119.566 5.872V5.656C119.566 5.368 119.454 5.132 119.23 4.948C119.014 4.764 118.726 4.672 118.366 4.672C118.03 4.672 117.73 4.764 117.466 4.948C117.21 5.124 117.022 5.36 116.902 5.656L115.618 5.032C115.81 4.52 116.162 4.108 116.674 3.796C117.186 3.484 117.77 3.328 118.426 3.328C118.954 3.328 119.422 3.428 119.83 3.628C120.246 3.82 120.566 4.096 120.79 4.456C121.022 4.808 121.138 5.208 121.138 5.656V10H119.65V9.304C119.138 9.864 118.458 10.144 117.61 10.144ZM116.998 8.212C116.998 8.436 117.082 8.616 117.25 8.752C117.418 8.88 117.634 8.944 117.898 8.944C118.386 8.944 118.786 8.792 119.098 8.488C119.41 8.176 119.566 7.792 119.566 7.336V7.072L117.922 7.348C117.61 7.412 117.378 7.516 117.226 7.66C117.074 7.796 116.998 7.98 116.998 8.212ZM122.591 3.472H124.067V4.24C124.307 3.952 124.603 3.728 124.955 3.568C125.315 3.408 125.719 3.328 126.167 3.328C126.775 3.328 127.331 3.48 127.835 3.784C128.339 4.08 128.735 4.488 129.023 5.008C129.311 5.528 129.455 6.104 129.455 6.736C129.455 7.368 129.311 7.944 129.023 8.464C128.735 8.984 128.339 9.396 127.835 9.7C127.339 9.996 126.779 10.144 126.155 10.144C125.755 10.144 125.383 10.08 125.039 9.952C124.695 9.816 124.403 9.624 124.163 9.376V12.4H122.591V3.472ZM124.163 6.736C124.163 7.112 124.239 7.452 124.391 7.756C124.551 8.052 124.767 8.284 125.039 8.452C125.319 8.62 125.631 8.704 125.975 8.704C126.511 8.704 126.951 8.52 127.295 8.152C127.647 7.776 127.823 7.304 127.823 6.736C127.823 6.368 127.743 6.036 127.583 5.74C127.423 5.436 127.203 5.2 126.923 5.032C126.643 4.856 126.327 4.768 125.975 4.768C125.631 4.768 125.319 4.852 125.039 5.02C124.767 5.188 124.551 5.424 124.391 5.728C124.239 6.024 124.163 6.36 124.163 6.736ZM130.654 3.472H132.13V4.24C132.37 3.952 132.666 3.728 133.018 3.568C133.378 3.408 133.782 3.328 134.23 3.328C134.838 3.328 135.394 3.48 135.898 3.784C136.402 4.08 136.798 4.488 137.086 5.008C137.374 5.528 137.518 6.104 137.518 6.736C137.518 7.368 137.374 7.944 137.086 8.464C136.798 8.984 136.402 9.396 135.898 9.7C135.402 9.996 134.842 10.144 134.218 10.144C133.818 10.144 133.446 10.08 133.102 9.952C132.758 9.816 132.466 9.624 132.226 9.376V12.4H130.654V3.472ZM132.226 6.736C132.226 7.112 132.302 7.452 132.454 7.756C132.614 8.052 132.83 8.284 133.102 8.452C133.382 8.62 133.694 8.704 134.038 8.704C134.574 8.704 135.014 8.52 135.358 8.152C135.71 7.776 135.886 7.304 135.886 6.736C135.886 6.368 135.806 6.036 135.646 5.74C135.486 5.436 135.266 5.2 134.986 5.032C134.706 4.856 134.39 4.768 134.038 4.768C133.694 4.768 133.382 4.852 133.102 5.02C132.83 5.188 132.614 5.424 132.454 5.728C132.302 6.024 132.226 6.36 132.226 6.736ZM140.543 9.904L137.999 3.472H139.691L141.383 7.972L143.063 3.472H144.767L141.239 12.4H139.547L140.543 9.904ZM145.762 1.06H148.678C149.614 1.06 150.434 1.248 151.138 1.624C151.842 2 152.386 2.528 152.77 3.208C153.154 3.88 153.346 4.652 153.346 5.524C153.346 6.388 153.154 7.16 152.77 7.84C152.386 8.52 151.838 9.052 151.126 9.436C150.422 9.812 149.606 10 148.678 10H145.762V1.06ZM148.714 8.56C149.314 8.56 149.838 8.436 150.286 8.188C150.742 7.94 151.09 7.588 151.33 7.132C151.578 6.668 151.702 6.132 151.702 5.524C151.702 4.916 151.578 4.384 151.33 3.928C151.09 3.472 150.742 3.12 150.286 2.872C149.838 2.624 149.314 2.5 148.714 2.5H147.394V8.56H148.714ZM154.513 3.472H156.085V10H154.513V3.472ZM154.393 1.672C154.393 1.384 154.473 1.16 154.633 0.999999C154.793 0.839999 155.013 0.76 155.293 0.76C155.581 0.76 155.805 0.839999 155.965 0.999999C156.125 1.16 156.205 1.384 156.205 1.672C156.205 1.952 156.125 2.172 155.965 2.332C155.813 2.492 155.589 2.572 155.293 2.572C155.013 2.572 154.793 2.492 154.633 2.332C154.473 2.172 154.393 1.952 154.393 1.672ZM160.705 12.64C159.969 12.64 159.321 12.464 158.761 12.112C158.209 11.768 157.829 11.308 157.621 10.732L159.085 10.18C159.181 10.492 159.373 10.74 159.661 10.924C159.949 11.108 160.297 11.2 160.705 11.2C161.185 11.2 161.573 11.064 161.869 10.792C162.173 10.52 162.325 10.148 162.325 9.676V8.968C161.861 9.48 161.233 9.736 160.441 9.736C159.841 9.736 159.297 9.596 158.809 9.316C158.329 9.036 157.953 8.652 157.681 8.164C157.409 7.676 157.273 7.128 157.273 6.52C157.273 5.912 157.405 5.368 157.669 4.888C157.941 4.4 158.317 4.02 158.797 3.748C159.277 3.468 159.813 3.328 160.405 3.328C161.245 3.328 161.913 3.624 162.409 4.216V3.472H163.897V9.676C163.897 10.244 163.761 10.752 163.489 11.2C163.217 11.656 162.837 12.008 162.349 12.256C161.869 12.512 161.321 12.64 160.705 12.64ZM158.905 6.532C158.905 7.036 159.065 7.456 159.385 7.792C159.713 8.12 160.129 8.284 160.633 8.284C161.129 8.284 161.533 8.12 161.845 7.792C162.165 7.464 162.325 7.044 162.325 6.532C162.325 6.02 162.165 5.6 161.845 5.272C161.525 4.936 161.121 4.768 160.633 4.768C160.137 4.768 159.725 4.936 159.397 5.272C159.069 5.608 158.905 6.028 158.905 6.532ZM165.365 3.472H166.937V10H165.365V3.472ZM165.245 1.672C165.245 1.384 165.325 1.16 165.485 0.999999C165.645 0.839999 165.865 0.76 166.145 0.76C166.433 0.76 166.657 0.839999 166.817 0.999999C166.977 1.16 167.057 1.384 167.057 1.672C167.057 1.952 166.977 2.172 166.817 2.332C166.665 2.492 166.441 2.572 166.145 2.572C165.865 2.572 165.645 2.492 165.485 2.332C165.325 2.172 165.245 1.952 165.245 1.672ZM171.364 10.072C170.628 10.072 170.056 9.872 169.648 9.472C169.248 9.064 169.048 8.492 169.048 7.756V4.876H167.92V3.472H168.04C168.36 3.472 168.608 3.388 168.784 3.22C168.96 3.052 169.048 2.808 169.048 2.488V1.984H170.62V3.472H172.12V4.876H170.62V7.672C170.62 8.352 170.988 8.692 171.724 8.692C171.852 8.692 171.992 8.68 172.144 8.656V10.012C171.888 10.052 171.628 10.072 171.364 10.072ZM175.29 10.144C174.602 10.144 174.054 9.976 173.646 9.64C173.246 9.304 173.046 8.848 173.046 8.272C173.046 7.72 173.234 7.264 173.61 6.904C173.986 6.544 174.55 6.304 175.302 6.184L177.246 5.872V5.656C177.246 5.368 177.134 5.132 176.91 4.948C176.694 4.764 176.406 4.672 176.046 4.672C175.71 4.672 175.41 4.764 175.146 4.948C174.89 5.124 174.702 5.36 174.582 5.656L173.298 5.032C173.49 4.52 173.842 4.108 174.354 3.796C174.866 3.484 175.45 3.328 176.106 3.328C176.634 3.328 177.102 3.428 177.51 3.628C177.926 3.82 178.246 4.096 178.47 4.456C178.702 4.808 178.818 5.208 178.818 5.656V10H177.33V9.304C176.818 9.864 176.138 10.144 175.29 10.144ZM174.678 8.212C174.678 8.436 174.762 8.616 174.93 8.752C175.098 8.88 175.314 8.944 175.578 8.944C176.066 8.944 176.466 8.792 176.778 8.488C177.09 8.176 177.246 7.792 177.246 7.336V7.072L175.602 7.348C175.29 7.412 175.058 7.516 174.906 7.66C174.754 7.796 174.678 7.98 174.678 8.212ZM180.271 0.916H181.843V10H180.271V0.916Z" fill="#041434"/>
<a href="https://www.happydigital.nl/">
<rect fill="black" fill-opacity="0" y="-0.56" width="183.563" height="15.12"/>
</a>
</svg>
