<svg width="12" height="12" viewBox="0 0 12 12" fill="none" xmlns="http://www.w3.org/2000/svg">
<path fill-rule="evenodd" clip-rule="evenodd" d="M5.78096 1.1507C5.81538 1.06004 5.90292 1 6.0007 1C6.09849 1 6.18603 1.06004 6.22045 1.1507L7.40888 4.48843H10.7652C10.8635 4.48842 10.9514 4.54907 10.9854 4.64042C11.0195 4.73176 10.9925 4.83445 10.9178 4.89773L8.1132 7.20103L9.28706 10.6941C9.31928 10.7901 9.2851 10.8958 9.20252 10.9554C9.11994 11.015 9.00793 11.0149 8.92551 10.955L6.00024 8.82896L3.07355 10.955C2.9911 11.0137 2.87996 11.0132 2.79804 10.9538C2.71612 10.8945 2.68198 10.7897 2.71341 10.6941L3.88727 7.20103L1.0822 4.89773C1.00749 4.83445 0.980495 4.73176 1.01455 4.64042C1.04861 4.54907 1.1365 4.48842 1.2348 4.48843H4.59159L5.78096 1.1507Z" fill="#FEC84B" stroke="#FEC84B"/>
</svg>
